# xmcd
#
# Track frame offsets:
#	150
#	19109
#	36979
#	52243
#	67852
#	84684
#	98910
#	114326
#	126674
#	141489
#	158426
#	174847
#	191813
#	213227
#	229584
#	246021
#	263691
#
# Disc length: 3688 seconds
#
# Revision: 0
# Processed by: cddbd v1.5.2PL0 Copyright (c) Steve Scherf et al.
# Submitted via: EasyCDDAExtractor 15.0.0.1
#
DISCID=eb0e6611
DTITLE=Grupo LDA os Sertanejos do Forro - Tentei te amar
DYEAR=1900
DGENRE=
TTITLE0=Tentei te amar
TTITLE1=Onde esta voce 
TTITLE2=Essa coca e fanta
TTITLE3=Meiga senhorita
TTITLE4=Solidao e uma ressaca
TTITLE5=Acaba sim
TTITLE6=Quero voce
TTITLE7=Vontade de me ter
TTITLE8=Me leva pra casa
TTITLE9=Desculpe amor
TTITLE10=Velho safado
TTITLE11=Voce vai ver pao de mel
TTITLE12=Chalala y love you
TTITLE13=Ta bao demais
TTITLE14=Sem direcao
TTITLE15=Cai fora
TTITLE16=No dia em que sai de casa
EXTD=
EXTT0=
EXTT1=
EXTT2=
EXTT3=
EXTT4=
EXTT5=
EXTT6=
EXTT7=
EXTT8=
EXTT9=
EXTT10=
EXTT11=
EXTT12=
EXTT13=
EXTT14=
EXTT15=
EXTT16=
PLAYORDER=
